<svg xmlns="http://www.w3.org/2000/svg" width="242" height="550"><g fill="none" fill-rule="evenodd" opacity=".2"><path d="M56 483h43.2v43.2H56z"/><path stroke="#7864FF" stroke-linecap="round" stroke-linejoin="round" stroke-width="3.6" d="M77.6 522.6c4.096 0 7.793-1.71 10.415-4.456A14.351 14.351 0 0092 508.2c0-7.953-6.447-14.4-14.4-14.4s-14.4 6.447-14.4 14.4 6.447 14.4 14.4 14.4zm17.1-26.1l-3.6-3.6 3.6 3.6zm-34.2 0l3.6-3.6m13.5 16.2v-9m-4.5-11.7h9"/><g transform="rotate(18 -732.65 160.941)"><path d="M0 0h43.2v43.2H0z"/><path stroke="#7864FF" stroke-linecap="round" stroke-linejoin="round" stroke-width="3.6" d="M10.8 30.6h-.9a4.5 4.5 0 01-4.5-4.5V11.7a4.5 4.5 0 014.5-4.5h23.4a4.5 4.5 0 014.5 4.5v14.4a4.5 4.5 0 01-4.5 4.5H21.008a4.5 4.5 0 00-3.457 1.62L14.4 36h0"/><circle cx="14.4" cy="18.9" r="1.8" fill="#7864FF" fill-rule="nonzero" stroke="#7864FF" stroke-width=".9"/><circle cx="21.6" cy="18.9" r="1.8" fill="#7864FF" fill-rule="nonzero" stroke="#7864FF" stroke-width=".9"/><circle cx="28.8" cy="18.9" r="1.8" fill="#7864FF" fill-rule="nonzero" stroke="#7864FF" stroke-width=".9"/></g><g transform="translate(54 6)"><circle cx="4.617" cy="356.617" r="4.617" fill="#FFD167"/><circle cx="96.957" cy="424.333" r="4.617" fill="#FFA9BC"/><circle cx="10.773" cy="128.355" r="10.773" fill="#FFF"/><g transform="rotate(30 -424.569 275.595)"><circle cx="10.773" cy="63.099" r="10.773" fill="#1574F6" stroke="#1574F6" stroke-width="1.9"/><circle cx="43.861" cy="6.925" r="6.925" fill="#FFD167"/></g><circle cx="43.861" cy="72.181" r="6.925" fill="#6009CA"/><path fill="#1574F6" stroke="#1574F6" stroke-linecap="round" stroke-width="10.773" d="M172.251 29.252l-27.067-13.791m6.638 20.429l13.791-27.068"/><path stroke="#B994E6" stroke-linecap="round" stroke-width="5.54" d="M144.07 516.592l-10.13 17.545m13.838-3.707l-17.545-10.13"/></g><g transform="rotate(-17 621.638 -305.66)"><path d="M0 0h43.2v43.2H0z"/><path stroke="#7864FF" stroke-linecap="round" stroke-linejoin="round" stroke-width="3.6" d="M5.4 30.6V13.5A4.5 4.5 0 019.9 9h2.7l3.6-3.6H27L30.6 9h2.7a4.5 4.5 0 014.5 4.5v19.8a4.5 4.5 0 01-4.5 4.5H9h0"/><circle cx="21.6" cy="24.3" r="4.5" stroke="#7864FF" stroke-width="3.6"/><circle cx="30.6" cy="16.2" r="1.8" fill="#7864FF" fill-rule="nonzero"/></g></g></svg>
