<?xml version="1.0" encoding="UTF-8"?>
<svg width="242px" height="550px" viewBox="0 0 242 550" version="1.1" xmlns="http://www.w3.org/2000/svg" xmlns:xlink="http://www.w3.org/1999/xlink">
    <title>0AD0C8F2-BCAF-43D4-B926-A0B5BC8DDEBD</title>
    <g id="Final" stroke="none" stroke-width="1" fill="none" fill-rule="evenodd" opacity="0.2">
        <g id="Startseite/Desktop-Copy-11" transform="translate(-809.000000, -4145.000000)">
            <g id="-g-Group-6" transform="translate(809.000000, 4151.000000)">
                <g id="#032" transform="translate(56.000000, 477.000000)">
                    <rect id="矩形" fill-rule="nonzero" x="0" y="0" width="43.1999989" height="43.1999989"></rect>
                    <path d="M21.5999994,39.599999 C25.6963428,39.599999 29.3931932,37.8895661 32.0153178,35.1439334 C34.4839517,32.5590211 35.999999,29.0565561 35.999999,25.1999993 C35.999999,17.2470991 29.5528996,10.7999997 21.5999994,10.7999997 C13.6470992,10.7999997 7.19999981,17.2470991 7.19999981,25.1999993 C7.19999981,33.1528995 13.6470992,39.599999 21.5999994,39.599999 Z" id="椭圆形" stroke="#7864FF" stroke-width="3.5999999" stroke-linecap="round" stroke-linejoin="round"></path>
                    <path d="M38.699999,13.4999996 L35.0999991,9.89999974 L38.699999,13.4999996 Z" id="直线" stroke="#7864FF" stroke-width="3.5999999" stroke-linecap="round" stroke-linejoin="round"></path>
                    <line x1="4.49999988" y1="13.4999996" x2="8.09999979" y2="9.89999974" id="直线" stroke="#7864FF" stroke-width="3.5999999" stroke-linecap="round" stroke-linejoin="round"></line>
                    <line x1="21.5999994" y1="26.0999993" x2="21.5999994" y2="17.0999995" id="直线" stroke="#7864FF" stroke-width="3.5999999" stroke-linecap="round" stroke-linejoin="round"></line>
                    <line x1="17.0999995" y1="5.39999986" x2="26.0999993" y2="5.39999986" id="直线" stroke="#7864FF" stroke-width="3.5999999" stroke-linecap="round" stroke-linejoin="round"></line>
                </g>
                <g id="#026" transform="translate(28.000000, 256.000000) rotate(18.000000) translate(-28.000000, -256.000000) translate(6.000000, 234.000000)">
                    <rect id="矩形" fill-rule="nonzero" x="0" y="0" width="43.1999989" height="43.1999989"></rect>
                    <path d="M10.7999997,30.5999992 L9.89999974,30.5999992 C7.41471843,30.5999992 5.39999986,28.5852806 5.39999986,26.0999993 L5.39999986,11.6999997 C5.39999986,9.21471838 7.41471843,7.19999981 9.89999974,7.19999981 L33.2999991,7.19999981 C35.7852804,7.19999981 37.799999,9.21471838 37.799999,11.6999997 L37.799999,26.0999993 C37.799999,28.5852806 35.7852804,30.5999992 33.2999991,30.5999992 L21.007687,30.5999992 C19.6721778,30.5999992 18.4056636,31.1932027 17.5506914,32.2191693 L14.3999999,35.999999 L14.3999999,35.999999" id="路径" stroke="#7864FF" stroke-width="3.5999999" stroke-linecap="round" stroke-linejoin="round"></path>
                    <circle id="椭圆形" stroke="#7864FF" stroke-width="0.899999976" fill="#7864FF" fill-rule="nonzero" cx="14.3999996" cy="18.8999995" r="1.79999995"></circle>
                    <circle id="椭圆形" stroke="#7864FF" stroke-width="0.899999976" fill="#7864FF" fill-rule="nonzero" cx="21.5999994" cy="18.8999995" r="1.79999995"></circle>
                    <circle id="椭圆形" stroke="#7864FF" stroke-width="0.899999976" fill="#7864FF" fill-rule="nonzero" cx="28.7999992" cy="18.8999995" r="1.79999995"></circle>
                </g>
                <g id="Group-14" transform="translate(54.000000, 0.000000)">
                    <circle id="Oval-18" fill="#FFD167" cx="4.61699994" cy="356.617" r="4.61699994"></circle>
                    <circle id="Oval-18" fill="#FFA9BC" cx="96.9569988" cy="424.332999" r="4.61699994"></circle>
                    <circle id="Oval-11" fill="#FFFFFF" cx="10.7729999" cy="128.354943" r="10.7729999"></circle>
                    <g id="Group-4" transform="translate(84.891855, 293.919364) rotate(-45.000000) translate(-84.891855, -293.919364) translate(41.891855, 259.419364)">
                        <g id="Group-2" transform="translate(42.665898, 34.279935) rotate(-285.000000) translate(-42.665898, -34.279935) translate(17.165898, -2.720065)">
                            <circle id="Oval-11-Copy" stroke="#1574F6" stroke-width="1.89999998" fill="#1574F6" cx="10.7729999" cy="63.0989992" r="10.7729999"></circle>
                            <circle id="Oval-11-Copy-2" fill="#FFD167" cx="43.8614994" cy="6.92549991" r="6.92549991"></circle>
                        </g>
                    </g>
                    <circle id="Oval-11" fill="#6009CA" cx="43.8614994" cy="72.1814439" r="6.92549991"></circle>
                    <g id="Group-23" transform="translate(158.490113, 22.118002) rotate(-153.000000) translate(-158.490113, -22.118002) translate(142.990113, 6.118002)" fill="#1574F6" stroke="#1574F6" stroke-linecap="round" stroke-width="10.7729999">
                        <line x1="3.88474847e-12" y1="15.8907697" x2="30.3781988" y2="15.8907697" id="Line"></line>
                        <g id="Group-22" transform="translate(15.138172, 16.202544) rotate(-270.000000) translate(-15.138172, -16.202544) translate(-0.361828, 11.702544)">
                            <line x1="-2.76115127e-13" y1="4.44941553" x2="30.3781988" y2="4.44941553" id="Line"></line>
                        </g>
                    </g>
                    <g id="Group-2-Copy" transform="translate(138.500000, 525.500000) rotate(-600.000000) translate(-138.500000, -525.500000) translate(128.000000, 515.000000)" stroke="#B994E6" stroke-linecap="round" stroke-width="5.5403996">
                        <line x1="-2.07045035e-11" y1="10.1297857" x2="20.2595714" y2="10.1297857" id="Line"></line>
                        <line x1="-2.07046623e-11" y1="10.1297857" x2="20.2595714" y2="10.1297857" id="Line" transform="translate(10.129786, 10.129786) rotate(-270.000000) translate(-10.129786, -10.129786) "></line>
                    </g>
                </g>
                <g id="#003" transform="translate(144.000000, 177.000000) rotate(-17.000000) translate(-144.000000, -177.000000) translate(122.000000, 155.000000)">
                    <rect id="矩形" fill-rule="nonzero" x="0" y="0" width="43.1999989" height="43.1999989"></rect>
                    <path d="M5.39999986,30.5999992 L5.39999986,13.4999996 C5.39999986,11.0147183 7.41471843,8.99999976 9.89999974,8.99999976 L12.5999997,8.99999976 L12.5999997,8.99999976 L16.1999996,5.39999986 L26.9999993,5.39999986 L30.5999992,8.99999976 L33.2999991,8.99999976 C35.7852804,8.99999976 37.799999,11.0147183 37.799999,13.4999996 L37.799999,33.2999991 C37.799999,35.7852804 35.7852804,37.799999 33.2999991,37.799999 L8.99999976,37.799999 L8.99999976,37.799999" id="路径" stroke="#7864FF" stroke-width="3.5999999" stroke-linecap="round" stroke-linejoin="round"></path>
                    <circle id="椭圆形" stroke="#7864FF" stroke-width="3.5999999" fill-rule="nonzero" cx="21.5999994" cy="24.2999994" r="4.49999988"></circle>
                    <circle id="椭圆形" fill="#7864FF" fill-rule="nonzero" cx="30.5999992" cy="16.1999996" r="1.79999995"></circle>
                </g>
            </g>
        </g>
    </g>
</svg>