<?xml version="1.0" encoding="UTF-8"?>
<svg width="323px" height="550px" viewBox="0 0 323 550" version="1.1" xmlns="http://www.w3.org/2000/svg" xmlns:xlink="http://www.w3.org/1999/xlink">
    <title>B406E766-64BE-4410-BF37-5E368D9CEA07</title>
    <g id="Final" stroke="none" stroke-width="1" fill="none" fill-rule="evenodd">
        <g id="01_Dekk/Login" transform="translate(-1328.000000, -173.000000)">
            <g id="-g-Group-6-Copy" transform="translate(1489.500000, 449.000000) scale(-1, 1) translate(-1489.500000, -449.000000) translate(1328.000000, 179.000000)">
                <g id="Group-14">
                    <circle id="Oval-18" fill="#8ADAF8" opacity="0.508570429" cx="76.6169999" cy="356.617" r="4.61699994"></circle>
                    <polygon id="Triangle" fill="#AE7BDB" points="162 391 169 405 155 405"></polygon>
                    <circle id="Oval-11" fill="#B409CA" opacity="0.451142724" cx="92.7729999" cy="145.354943" r="10.7729999"></circle>
                    <g id="Group-4" transform="translate(161.488049, 183.257153) rotate(-45.000000) translate(-161.488049, -183.257153) translate(39.988049, 77.757153)">
                        <g id="Group-2" transform="translate(121.480411, 105.041079) rotate(-285.000000) translate(-121.480411, -105.041079) translate(40.480411, 1.541079)">
                            <rect id="Rectangle" fill="#A6E38E" x="51.2871871" y="184.502577" width="22" height="22"></rect>
                            <rect id="Rectangle-Copy" fill="#A7E48D" transform="translate(11.272759, 11.028259) rotate(-60.000000) translate(-11.272759, -11.028259) " x="3.27275866" y="3.02825874" width="16" height="16"></rect>
                            <circle id="Oval-11-Copy-2" fill="#E48D8D" opacity="0.493703358" cx="150.404156" cy="142.010908" r="11"></circle>
                        </g>
                    </g>
                    <g id="Group-23" opacity="0.424032183" transform="translate(230.490113, 22.118002) rotate(-153.000000) translate(-230.490113, -22.118002) translate(214.990113, 6.118002)" stroke="#B58EE5" stroke-linecap="round" stroke-width="10.7729999">
                        <line x1="3.88474847e-12" y1="15.8907697" x2="30.3781988" y2="15.8907697" id="Line"></line>
                        <g id="Group-22" transform="translate(15.138172, 16.202544) rotate(-270.000000) translate(-15.138172, -16.202544) translate(-0.361828, 11.702544)">
                            <line x1="-2.76115127e-13" y1="4.44941553" x2="30.3781988" y2="4.44941553" id="Line"></line>
                        </g>
                    </g>
                    <g id="Group-2-Copy" transform="translate(210.500000, 525.500000) rotate(-600.000000) translate(-210.500000, -525.500000) translate(200.000000, 515.000000)" stroke="#E48D8D" stroke-linecap="round" stroke-width="5.5403996">
                        <line x1="-2.07045035e-11" y1="10.1297857" x2="20.2595714" y2="10.1297857" id="Line"></line>
                        <line x1="-2.07046623e-11" y1="10.1297857" x2="20.2595714" y2="10.1297857" id="Line" transform="translate(10.129786, 10.129786) rotate(-270.000000) translate(-10.129786, -10.129786) "></line>
                    </g>
                    <path d="M232.9255,354.9255 C242.314341,354.9255 249.9255,347.314341 249.9255,337.9255 C249.9255,328.536659 242.314341,320.9255 232.9255,320.9255 C223.536659,320.9255 215.9255,328.536659 215.9255,337.9255 C215.9255,347.314341 223.536659,354.9255 232.9255,354.9255 Z" id="Oval-11" fill="#A7E48D" opacity="0.212278451" transform="translate(232.925500, 337.925500) rotate(-47.000000) translate(-232.925500, -337.925500) "></path>
                </g>
                <g id="#004" transform="translate(215.055613, 154.944387) rotate(-195.000000) translate(-215.055613, -154.944387) translate(193.055613, 132.944387)">
                    <rect id="矩形" fill-rule="nonzero" x="0" y="0" width="43.1999989" height="43.1999989"></rect>
                    <path d="M5.39999986,30.5999992 L5.39999986,9.89999974 C5.39999986,7.41471843 7.41471843,5.39999986 9.89999974,5.39999986 L33.2999991,5.39999986 C35.7852804,5.39999986 37.799999,7.41471843 37.799999,9.89999974 L37.799999,33.2999991 C37.799999,35.7852804 35.7852804,37.799999 33.2999991,37.799999 L8.99999976,37.799999 L8.99999976,37.799999" id="路径" stroke="#9013FE" stroke-width="3.5999999" stroke-linecap="round" stroke-linejoin="round"></path>
                    <path d="M15.2999996,14.2755478 C15.2999996,13.5599076 15.7784856,13.2916445 16.3654455,13.6742257 L27.4592281,20.9051685 C28.0476576,21.2887076 28.0461879,21.9115054 27.4592281,22.2940866 L16.3654455,29.5250294 C15.777016,29.9085685 15.2999996,29.6409624 15.2999996,28.9237073 L15.2999996,14.2755478 Z" id="三角形" stroke="#E66CFF" stroke-width="3.5999999" stroke-linecap="round" stroke-linejoin="round"></path>
                    <circle id="椭圆形" fill="#FF9F00" fill-rule="nonzero" cx="30.5999992" cy="12.5999997" r="1.79999995"></circle>
                </g>
            </g>
        </g>
    </g>
</svg>