<?xml version="1.0" encoding="UTF-8"?>
<svg width="323px" height="550px" viewBox="0 0 323 550" version="1.1" xmlns="http://www.w3.org/2000/svg" xmlns:xlink="http://www.w3.org/1999/xlink">
    <title>D400AE15-F4CB-4F8C-B630-2C0A8A2AFF2A</title>
    <g id="Final" stroke="none" stroke-width="1" fill="none" fill-rule="evenodd">
        <g id="01_Dekk/Login" transform="translate(-135.000000, -173.000000)">
            <g id="-g-Group-6" transform="translate(135.000000, 179.000000)">
                <g id="#032" transform="translate(74.000000, 477.000000)">
                    <rect id="矩形" fill-rule="nonzero" x="0" y="0" width="43.1999989" height="43.1999989"></rect>
                    <path d="M21.5999994,39.599999 C25.6963428,39.599999 29.3931932,37.8895661 32.0153178,35.1439334 C34.4839517,32.5590211 35.999999,29.0565561 35.999999,25.1999993 C35.999999,17.2470991 29.5528996,10.7999997 21.5999994,10.7999997 C13.6470992,10.7999997 7.19999981,17.2470991 7.19999981,25.1999993 C7.19999981,33.1528995 13.6470992,39.599999 21.5999994,39.599999 Z" id="椭圆形" stroke="#9013FE" stroke-width="3.5999999" stroke-linecap="round" stroke-linejoin="round"></path>
                    <path d="M38.699999,13.4999996 L35.0999991,9.89999974 L38.699999,13.4999996 Z" id="直线" stroke="#E66CFF" stroke-width="3.5999999" stroke-linecap="round" stroke-linejoin="round"></path>
                    <line x1="4.49999988" y1="13.4999996" x2="8.09999979" y2="9.89999974" id="直线" stroke="#E66CFF" stroke-width="3.5999999" stroke-linecap="round" stroke-linejoin="round"></line>
                    <line x1="21.5999994" y1="26.0999993" x2="21.5999994" y2="17.0999995" id="直线" stroke="#E66CFF" stroke-width="3.5999999" stroke-linecap="round" stroke-linejoin="round"></line>
                    <line x1="17.0999995" y1="5.39999986" x2="26.0999993" y2="5.39999986" id="直线" stroke="#9013FE" stroke-width="3.5999999" stroke-linecap="round" stroke-linejoin="round"></line>
                    <circle id="椭圆形" fill="#FF9F00" fill-rule="nonzero" cx="21.5999994" cy="26.0999993" r="1.79999995"></circle>
                </g>
                <g id="#026" transform="translate(291.000000, 439.000000) rotate(18.000000) translate(-291.000000, -439.000000) translate(269.000000, 417.000000)">
                    <rect id="矩形" fill-rule="nonzero" x="0" y="0" width="43.1999989" height="43.1999989"></rect>
                    <path d="M10.7999997,30.5999992 L9.89999974,30.5999992 C7.41471843,30.5999992 5.39999986,28.5852806 5.39999986,26.0999993 L5.39999986,11.6999997 C5.39999986,9.21471838 7.41471843,7.19999981 9.89999974,7.19999981 L33.2999991,7.19999981 C35.7852804,7.19999981 37.799999,9.21471838 37.799999,11.6999997 L37.799999,26.0999993 C37.799999,28.5852806 35.7852804,30.5999992 33.2999991,30.5999992 L21.007687,30.5999992 C19.6721778,30.5999992 18.4056636,31.1932027 17.5506914,32.2191693 L14.3999999,35.999999 L14.3999999,35.999999" id="路径" stroke="#9013FE" stroke-width="3.5999999" stroke-linecap="round" stroke-linejoin="round"></path>
                    <circle id="椭圆形" fill="#FF9F00" fill-rule="nonzero" cx="14.3999996" cy="18.8999995" r="1.79999995"></circle>
                    <circle id="椭圆形" fill="#E66CFF" fill-rule="nonzero" cx="21.5999994" cy="18.8999995" r="1.79999995"></circle>
                    <circle id="椭圆形" fill="#E66CFF" fill-rule="nonzero" cx="28.7999992" cy="18.8999995" r="1.79999995"></circle>
                </g>
                <g id="Group-14">
                    <circle id="Oval-18" fill="#8ADAF8" opacity="0.508570429" cx="76.6169999" cy="356.617" r="4.61699994"></circle>
                    <polygon id="Triangle" fill="#AE7BDB" points="162 391 169 405 155 405"></polygon>
                    <circle id="Oval-11" fill="#B409CA" opacity="0.451142724" cx="92.7729999" cy="145.354943" r="10.7729999"></circle>
                    <g id="Group-4" transform="translate(161.488049, 183.257153) rotate(-45.000000) translate(-161.488049, -183.257153) translate(39.988049, 77.757153)">
                        <g id="Group-2" transform="translate(121.480411, 105.041079) rotate(-285.000000) translate(-121.480411, -105.041079) translate(40.480411, 1.541079)">
                            <rect id="Rectangle" fill="#A6E38E" x="51.2871871" y="184.502577" width="22" height="22"></rect>
                            <rect id="Rectangle-Copy" fill="#E38E8E" transform="translate(11.272759, 11.028259) rotate(-60.000000) translate(-11.272759, -11.028259) " x="3.27275866" y="3.02825874" width="16" height="16"></rect>
                            <circle id="Oval-11-Copy-2" fill="#0929CA" opacity="0.493703358" cx="150.404156" cy="142.010908" r="11"></circle>
                        </g>
                    </g>
                    <g id="Group-23" opacity="0.424032183" transform="translate(230.490113, 22.118002) rotate(-153.000000) translate(-230.490113, -22.118002) translate(214.990113, 6.118002)" stroke="#EFC6C6" stroke-linecap="round" stroke-width="10.7729999">
                        <line x1="3.88474847e-12" y1="15.8907697" x2="30.3781988" y2="15.8907697" id="Line"></line>
                        <g id="Group-22" transform="translate(15.138172, 16.202544) rotate(-270.000000) translate(-15.138172, -16.202544) translate(-0.361828, 11.702544)">
                            <line x1="-2.76115127e-13" y1="4.44941553" x2="30.3781988" y2="4.44941553" id="Line"></line>
                        </g>
                    </g>
                    <g id="Group-2-Copy" transform="translate(210.500000, 525.500000) rotate(-600.000000) translate(-210.500000, -525.500000) translate(200.000000, 515.000000)" stroke="#B994E6" stroke-linecap="round" stroke-width="5.5403996">
                        <line x1="-2.07045035e-11" y1="10.1297857" x2="20.2595714" y2="10.1297857" id="Line"></line>
                        <line x1="-2.07046623e-11" y1="10.1297857" x2="20.2595714" y2="10.1297857" id="Line" transform="translate(10.129786, 10.129786) rotate(-270.000000) translate(-10.129786, -10.129786) "></line>
                    </g>
                    <path d="M232.9255,354.9255 C242.314341,354.9255 249.9255,347.314341 249.9255,337.9255 C249.9255,328.536659 242.314341,320.9255 232.9255,320.9255 C223.536659,320.9255 215.9255,328.536659 215.9255,337.9255 C215.9255,347.314341 223.536659,354.9255 232.9255,354.9255 Z" id="Oval-11" fill="#48D2A0" opacity="0.212278451" transform="translate(232.925500, 337.925500) rotate(-47.000000) translate(-232.925500, -337.925500) "></path>
                </g>
                <g id="#003" transform="translate(224.000000, 155.000000) rotate(-17.000000) translate(-224.000000, -155.000000) translate(202.000000, 133.000000)">
                    <rect id="矩形" fill-rule="nonzero" x="0" y="0" width="43.1999989" height="43.1999989"></rect>
                    <path d="M5.39999986,30.5999992 L5.39999986,13.4999996 C5.39999986,11.0147183 7.41471843,8.99999976 9.89999974,8.99999976 L12.5999997,8.99999976 L12.5999997,8.99999976 L16.1999996,5.39999986 L26.9999993,5.39999986 L30.5999992,8.99999976 L33.2999991,8.99999976 C35.7852804,8.99999976 37.799999,11.0147183 37.799999,13.4999996 L37.799999,33.2999991 C37.799999,35.7852804 35.7852804,37.799999 33.2999991,37.799999 L8.99999976,37.799999 L8.99999976,37.799999" id="路径" stroke="#9013FE" stroke-width="3.5999999" stroke-linecap="round" stroke-linejoin="round"></path>
                    <circle id="椭圆形" stroke="#E66CFF" stroke-width="3.5999999" fill-rule="nonzero" cx="21.5999994" cy="24.2999994" r="4.49999988"></circle>
                    <circle id="椭圆形" fill="#FF9F00" fill-rule="nonzero" cx="30.5999992" cy="16.1999996" r="1.79999995"></circle>
                </g>
            </g>
        </g>
    </g>
</svg>