<?xml version="1.0" encoding="UTF-8"?>
<svg width="31px" height="36px" viewBox="0 0 31 36" version="1.1" xmlns="http://www.w3.org/2000/svg" xmlns:xlink="http://www.w3.org/1999/xlink">
    <title>7E10B6FA-1BEC-4326-AE1A-78987E817456</title>
    <g id="Final" stroke="none" stroke-width="1" fill="none" fill-rule="evenodd">
        <g id="01_Dekk/Login" transform="translate(-830.000000, -704.000000)" fill="#000000" fill-rule="nonzero">
            <g id="Group-3" transform="translate(482.000000, 167.000000)">
                <g id="-g-Apple_logo_black" transform="translate(348.000000, 537.000000)">
                    <path d="M25.272,34.524 C23.3208,36.4176 21.168,36.1224 19.116,35.2296 C16.9344,34.3188 14.94,34.2612 12.636,35.2296 C9.7668,36.468 8.244,36.108 6.516,34.524 C-3.24,24.48 -1.8,9.18 9.288,8.604 C11.9772,8.748 13.86,10.0908 15.444,10.2024 C17.7984,9.7236 20.052,8.352 22.572,8.532 C25.5996,8.7768 27.864,9.972 29.376,12.1212 C23.148,15.8652 24.624,24.0732 30.3444,26.3772 C29.1996,29.3832 27.7308,32.3532 25.2684,34.5492 L25.272,34.524 Z M15.228,8.496 C14.9364,4.032 18.5544,0.36 22.716,0 C23.2884,5.148 18.036,9 15.228,8.496 Z" id="Shape"></path>
                </g>
            </g>
        </g>
    </g>
</svg>