<?xml version="1.0" encoding="UTF-8"?>
<svg width="36px" height="36px" viewBox="0 0 36 36" version="1.1" xmlns="http://www.w3.org/2000/svg" xmlns:xlink="http://www.w3.org/1999/xlink">
    <title>796B2D01-B42D-47F7-AB31-E1B4965606EA</title>
    <g id="Final" stroke="none" stroke-width="1" fill="none" fill-rule="evenodd">
        <g id="01_Dekk/Login" transform="translate(-924.000000, -704.000000)" fill-rule="nonzero">
            <g id="Group-3" transform="translate(482.000000, 167.000000)">
                <g id="-g-Facebook_f_logo_(2019)" transform="translate(442.000000, 537.000000)">
                    <circle id="Oval" fill="#1977F3" cx="17.9884041" cy="17.9884041" r="17.9884041"></circle>
                    <path d="M24.9904998,23.1893827 L25.7873423,17.9884041 L20.7988551,17.9884041 L20.7988551,14.6138392 C20.7988551,13.1921709 21.4945113,11.8033882 23.7307297,11.8033882 L25.9998337,11.8033882 L25.9998337,7.37648521 C25.9998337,7.37648521 23.9406914,7.02486263 21.9726168,7.02486263 C17.8644508,7.02486263 15.1779531,9.51404694 15.1779531,14.0244287 L15.1779531,17.9884041 L10.6093892,17.9884041 L10.6093892,23.1893827 L15.1779531,23.1893827 L15.1779531,35.7592575 C16.0936896,35.9034481 17.0321931,35.9768082 17.9884041,35.9768082 C18.9446151,35.9768082 19.8831186,35.9009184 20.7988551,35.7592575 L20.7988551,23.1893827 L24.9904998,23.1893827 Z" id="Path" fill="#FFFFFF"></path>
                </g>
            </g>
        </g>
    </g>
</svg>