<svg xmlns="http://www.w3.org/2000/svg" xmlns:xlink="http://www.w3.org/1999/xlink" width="36" height="36" viewBox="0 0 36 36"><defs/><defs><path id="a" d="M0 .061h35.549v34.672H0z"/></defs><g fill="none" fill-rule="evenodd"><g transform="translate(0 .233)"><mask id="b" fill="#fff"><use xlink:href="#a"/></mask><path fill="#fff" d="M17.775.06C7.959.06 0 8.019 0 17.837c0 7.853 5.093 14.516 12.155 16.866.889.164 1.215-.386 1.215-.855 0-.424-.017-1.824-.024-3.31C8.4 31.614 7.357 28.44 7.357 28.44c-.808-2.054-1.973-2.6-1.973-2.6-1.613-1.104.121-1.081.121-1.081 1.785.125 2.725 1.832 2.725 1.832 1.585 2.717 4.158 1.931 5.173 1.477.16-1.148.62-1.933 1.128-2.377-3.948-.449-8.098-1.973-8.098-8.784 0-1.94.694-3.526 1.831-4.771-.184-.448-.793-2.256.172-4.704 0 0 1.493-.477 4.89 1.822a17.05 17.05 0 014.449-.598c1.51.007 3.032.205 4.453.598 3.392-2.3 4.883-1.822 4.883-1.822.967 2.448.359 4.256.174 4.704 1.14 1.245 1.83 2.83 1.83 4.771 0 6.827-4.159 8.33-8.117 8.77.638.552 1.206 1.634 1.206 3.292 0 2.378-.02 4.292-.02 4.878 0 .473.32 1.027 1.22.853 7.059-2.353 12.146-9.014 12.146-16.864C35.55 8.018 27.592.06 17.775.06" mask="url(#b)"/></g><path fill="#221E1B" d="M6.732 25.815c-.039.088-.178.115-.304.054-.13-.058-.202-.178-.16-.267.038-.09.177-.116.306-.055.13.058.203.18.158.268M7.452 26.618c-.084.079-.25.042-.363-.082-.116-.124-.138-.29-.052-.37.088-.078.248-.041.365.083.116.125.139.29.05.369M8.153 27.642c-.109.076-.287.005-.397-.154-.11-.158-.11-.347.002-.423.11-.076.286-.008.398.149.108.16.108.35-.003.428M9.113 28.63c-.097.108-.305.08-.457-.067-.155-.144-.198-.347-.1-.454.098-.108.307-.078.46.068.154.143.201.347.097.454M10.438 29.205c-.043.14-.243.202-.444.143-.201-.06-.333-.224-.292-.364.041-.14.242-.206.445-.143.2.06.333.222.29.364M11.893 29.311c.005.147-.166.269-.378.271-.212.005-.384-.114-.387-.258 0-.148.168-.268.38-.272.211-.004.385.114.385.26M13.246 29.081c.025.143-.121.29-.331.329-.207.038-.398-.05-.424-.192-.025-.147.124-.294.33-.332.21-.036.398.05.425.195"/></g></svg>
