<?xml version="1.0" encoding="UTF-8"?>
<svg width="36px" height="36px" viewBox="0 0 36 36" version="1.1" xmlns="http://www.w3.org/2000/svg" xmlns:xlink="http://www.w3.org/1999/xlink">
    <title>CC549A44-9580-495F-824F-BB783FD7E5C4</title>
    <defs>
        <path d="M34.7727273,14.7272727 L18,14.7272727 L18,21.6818182 L27.6545455,21.6818182 C26.7545455,26.1 22.9909091,28.6363636 18,28.6363636 C12.1090909,28.6363636 7.36363636,23.8909091 7.36363636,18 C7.36363636,12.1090909 12.1090909,7.36363636 18,7.36363636 C20.5363636,7.36363636 22.8272727,8.26363636 24.6272727,9.73636364 L29.8636364,4.5 C26.6727273,1.71818182 22.5818182,0 18,0 C8.01818182,0 0,8.01818182 0,18 C0,27.9818182 8.01818182,36 18,36 C27,36 35.1818182,29.4545455 35.1818182,18 C35.1818182,16.9363636 35.0181818,15.7909091 34.7727273,14.7272727 Z" id="path-1"></path>
        <path d="M34.7727273,14.7272727 L18,14.7272727 L18,21.6818182 L27.6545455,21.6818182 C26.7545455,26.1 22.9909091,28.6363636 18,28.6363636 C12.1090909,28.6363636 7.36363636,23.8909091 7.36363636,18 C7.36363636,12.1090909 12.1090909,7.36363636 18,7.36363636 C20.5363636,7.36363636 22.8272727,8.26363636 24.6272727,9.73636364 L29.8636364,4.5 C26.6727273,1.71818182 22.5818182,0 18,0 C8.01818182,0 0,8.01818182 0,18 C0,27.9818182 8.01818182,36 18,36 C27,36 35.1818182,29.4545455 35.1818182,18 C35.1818182,16.9363636 35.0181818,15.7909091 34.7727273,14.7272727 Z" id="path-3"></path>
        <path d="M34.7727273,14.7272727 L18,14.7272727 L18,21.6818182 L27.6545455,21.6818182 C26.7545455,26.1 22.9909091,28.6363636 18,28.6363636 C12.1090909,28.6363636 7.36363636,23.8909091 7.36363636,18 C7.36363636,12.1090909 12.1090909,7.36363636 18,7.36363636 C20.5363636,7.36363636 22.8272727,8.26363636 24.6272727,9.73636364 L29.8636364,4.5 C26.6727273,1.71818182 22.5818182,0 18,0 C8.01818182,0 0,8.01818182 0,18 C0,27.9818182 8.01818182,36 18,36 C27,36 35.1818182,29.4545455 35.1818182,18 C35.1818182,16.9363636 35.0181818,15.7909091 34.7727273,14.7272727 Z" id="path-5"></path>
        <path d="M34.7727273,14.7272727 L18,14.7272727 L18,21.6818182 L27.6545455,21.6818182 C26.7545455,26.1 22.9909091,28.6363636 18,28.6363636 C12.1090909,28.6363636 7.36363636,23.8909091 7.36363636,18 C7.36363636,12.1090909 12.1090909,7.36363636 18,7.36363636 C20.5363636,7.36363636 22.8272727,8.26363636 24.6272727,9.73636364 L29.8636364,4.5 C26.6727273,1.71818182 22.5818182,0 18,0 C8.01818182,0 0,8.01818182 0,18 C0,27.9818182 8.01818182,36 18,36 C27,36 35.1818182,29.4545455 35.1818182,18 C35.1818182,16.9363636 35.0181818,15.7909091 34.7727273,14.7272727 Z" id="path-7"></path>
    </defs>
    <g id="Final" stroke="none" stroke-width="1" fill="none" fill-rule="evenodd">
        <g id="01_Dekk/Login" transform="translate(-733.000000, -704.000000)">
            <g id="Group-3" transform="translate(482.000000, 167.000000)">
                <g id="-g-Google__G__Logo" transform="translate(251.000000, 537.000000)">
                    <g id="Clipped">
                        <mask id="mask-2" fill="white">
                            <use xlink:href="#path-1"></use>
                        </mask>
                        <g id="a"></g>
                        <polygon id="Path" fill="#FBBC05" fill-rule="nonzero" mask="url(#mask-2)" points="-1.63636364 28.6363636 -1.63636364 7.36363636 12.2727273 18"></polygon>
                    </g>
                    <g id="Clipped">
                        <mask id="mask-4" fill="white">
                            <use xlink:href="#path-3"></use>
                        </mask>
                        <g id="a"></g>
                        <polygon id="Path" fill="#EA4335" fill-rule="nonzero" mask="url(#mask-4)" points="-1.63636364 7.36363636 12.2727273 18 18 13.0090909 37.6363636 9.81818182 37.6363636 -1.63636364 -1.63636364 -1.63636364"></polygon>
                    </g>
                    <g id="Clipped">
                        <mask id="mask-6" fill="white">
                            <use xlink:href="#path-5"></use>
                        </mask>
                        <g id="a"></g>
                        <polygon id="Path" fill="#34A853" fill-rule="nonzero" mask="url(#mask-6)" points="-1.63636364 28.6363636 22.9090909 9.81818182 29.3727273 10.6363636 37.6363636 -1.63636364 37.6363636 37.6363636 -1.63636364 37.6363636"></polygon>
                    </g>
                    <g id="Clipped">
                        <mask id="mask-8" fill="white">
                            <use xlink:href="#path-7"></use>
                        </mask>
                        <g id="a"></g>
                        <polygon id="Path" fill="#4285F4" fill-rule="nonzero" mask="url(#mask-8)" points="37.6363636 37.6363636 12.2727273 18 9 15.5454545 37.6363636 7.36363636"></polygon>
                    </g>
                </g>
            </g>
        </g>
    </g>
</svg>