<svg xmlns="http://www.w3.org/2000/svg" xmlns:xlink="http://www.w3.org/1999/xlink" width="36" height="36" viewBox="0 0 36 36"><defs><path id="a" d="M34.773 14.727H18v6.955h9.655c-.9 4.418-4.664 6.954-9.655 6.954A10.615 10.615 0 017.364 18c0-5.89 4.745-10.636 10.636-10.636 2.536 0 4.827.9 6.627 2.372L29.864 4.5C26.673 1.718 22.582 0 18 0 8.018 0 0 8.018 0 18s8.018 18 18 18c9 0 17.182-6.545 17.182-18 0-1.064-.164-2.21-.41-3.273z"/></defs><defs><use xlink:href="#a"/><use id="c" xlink:href="#a"/><use id="e" xlink:href="#a"/><use id="g" xlink:href="#a"/></defs><g fill="none" fill-rule="evenodd"><g><mask id="b" fill="#fff"><use xlink:href="#a"/></mask><path fill="#fff" fill-rule="nonzero" d="M-1.636 28.636V7.364L12.273 18z" mask="url(#b)"/></g><g><mask id="d" fill="#fff"><use xlink:href="#c"/></mask><path fill="#fff" fill-rule="nonzero" d="M-1.636 7.364L12.273 18 18 13.009l19.636-3.191V-1.636H-1.636z" mask="url(#d)"/></g><g><mask id="f" fill="#fff"><use xlink:href="#e"/></mask><path fill="#fff" fill-rule="nonzero" d="M-1.636 28.636L22.909 9.818l6.464.818 8.263-12.272v39.272H-1.636z" mask="url(#f)"/></g><g><mask id="h" fill="#fff"><use xlink:href="#g"/></mask><path fill="#fff" fill-rule="nonzero" d="M37.636 37.636L12.273 18 9 15.545l28.636-8.181z" mask="url(#h)"/></g></g></svg>
