<svg
	xmlns="http://www.w3.org/2000/svg"
	xmlns:xlink="http://www.w3.org/1999/xlink"
	width="1019px" height="598px">
	<path fill-rule="evenodd"  fill="#000000"
		  d="M359.769,484.173 C398.964,483.289 473.346,479.434 486.117,505.578 C490.877,514.016 486.961,523.598 482.905,529.123 C461.650,537.936 462.721,547.823 430.438,553.738 C377.843,563.373 305.355,559.353 288.030,522.701 C280.218,506.177 299.000,497.185 295.525,474.542 C293.027,427.100 290.528,379.644 288.030,332.202 C287.673,309.017 287.316,285.824 286.959,262.638 C278.062,206.821 282.108,132.404 290.171,78.561 C293.483,56.444 259.412,43.980 277.322,14.348 C329.194,-2.775 412.498,-4.573 472.197,8.997 C473.625,10.780 475.053,12.564 476.480,14.348 C476.249,78.004 399.839,54.299 352.274,67.859 C356.200,80.700 360.127,93.545 364.052,106.386 C370.541,137.699 367.883,223.466 362.982,255.147 C361.911,331.481 360.840,407.839 359.769,484.173 ZM107.074,42.173 C140.521,45.471 155.126,74.891 169.177,97.825 C212.511,168.549 233.667,321.295 189.521,408.188 C181.097,424.769 137.224,511.096 116.711,484.173 C112.010,487.694 111.016,490.006 102.791,490.595 C101.364,490.238 99.936,489.881 98.508,489.525 C91.894,482.754 92.170,473.288 88.872,462.769 C84.946,455.278 81.019,447.785 77.093,440.295 C73.380,421.000 115.361,368.188 122.065,343.975 C142.419,270.457 122.182,178.292 89.942,133.142 C82.194,122.291 64.079,100.152 42.830,104.246 C30.809,106.562 18.763,110.298 6.424,107.457 C4.283,103.176 2.141,98.894 0.000,94.614 C11.608,61.527 38.209,52.341 74.952,44.314 C87.919,41.481 96.375,46.533 107.074,42.173 ZM691.699,58.227 C715.700,57.874 737.707,68.579 738.812,91.403 C720.790,122.942 684.771,142.489 659.577,167.389 C617.401,209.071 580.719,258.592 548.220,309.728 C553.915,317.973 594.116,341.708 604.969,350.396 C645.653,382.963 685.574,430.205 715.256,473.471 C729.693,494.516 730.168,546.040 698.124,547.316 C673.094,533.024 654.029,505.131 633.879,485.244 C601.813,453.594 565.912,422.852 528.947,396.416 C514.419,386.026 465.799,360.970 460.419,346.115 C453.650,327.423 484.269,277.769 491.471,260.498 C512.087,211.051 602.265,94.717 646.728,72.139 C661.717,67.502 676.711,62.864 691.699,58.227 ZM955.102,58.227 C979.815,58.282 1028.412,63.420 1017.205,95.684 C1012.008,110.646 959.769,149.478 945.465,160.968 C901.141,196.572 858.969,260.567 827.684,309.728 C833.461,318.113 874.473,342.614 885.504,351.466 C923.584,382.025 959.335,425.355 988.295,464.910 C1001.393,482.798 1015.266,533.847 986.154,546.246 C982.942,544.106 979.729,541.965 976.517,539.825 C971.736,544.326 971.090,546.954 961.527,547.316 C936.411,532.975 917.586,505.091 897.282,485.244 C865.026,453.713 829.370,422.872 792.349,396.416 C777.812,386.027 729.204,360.978 723.822,346.115 C717.052,327.423 747.672,277.769 754.873,260.498 C777.484,206.268 860.804,102.294 907.989,73.210 C923.692,68.216 939.399,63.220 955.102,58.227 Z"/>
</svg>
