<svg
	xmlns="http://www.w3.org/2000/svg"
	xmlns:xlink="http://www.w3.org/1999/xlink"
	viewBox="0 0 74 42"
	width="74px" height="42px">
	<path
		fill="currentColor"
		d="M25.413,0.096 C27.948,0.056 32.603,-0.025 34.202,0.923 C34.211,1.470 34.124,1.767 33.977,2.125 C34.352,2.249 34.247,2.288 34.427,2.575 C34.200,3.302 33.998,4.199 33.451,4.604 C32.441,5.351 26.976,5.257 25.338,5.731 C25.338,5.756 25.338,5.781 25.338,5.806 C25.664,6.908 25.989,8.010 26.315,9.112 C26.190,18.327 26.064,27.545 25.939,36.760 C27.853,36.555 33.925,36.656 34.878,37.511 C35.427,37.880 35.200,38.967 35.028,39.690 C34.302,40.266 33.576,40.842 32.850,41.418 C30.979,42.153 23.776,42.286 22.259,41.267 C21.808,40.591 21.357,39.915 20.907,39.239 C21.018,38.416 21.480,38.380 21.733,37.887 C21.558,35.332 21.382,32.778 21.207,30.223 C21.157,27.619 21.107,25.014 21.057,22.410 C21.057,18.328 21.057,14.245 21.057,10.164 C21.132,8.361 21.207,6.557 21.282,4.754 C21.123,3.805 19.150,2.664 20.155,0.923 C21.057,0.722 21.958,0.522 22.860,0.322 C23.711,0.246 24.562,0.171 25.413,0.096 ZM5.959,3.402 C8.266,3.392 9.873,5.156 10.916,6.482 C15.026,11.708 17.648,23.716 13.395,30.975 C12.687,32.183 10.785,36.127 9.414,36.309 C9.241,36.069 9.126,35.985 8.963,35.933 C8.694,36.652 8.097,37.213 7.386,36.685 C7.025,35.493 6.374,34.210 6.259,33.003 C7.778,30.846 9.128,28.401 9.865,25.490 C11.421,19.338 9.074,10.698 5.733,8.210 C4.490,8.225 3.185,8.706 2.503,8.360 C2.478,8.285 2.453,8.210 2.428,8.135 C2.528,7.810 2.629,7.484 2.729,7.158 C2.028,7.284 1.326,7.409 0.625,7.534 C0.525,7.409 0.425,7.284 0.325,7.158 C0.525,4.274 3.763,4.369 5.959,3.402 ZM50.878,4.604 C52.073,4.583 54.040,5.561 53.431,6.858 C52.800,8.203 48.527,11.574 47.197,12.643 C43.923,15.275 40.868,20.052 38.559,23.687 C38.584,23.737 38.609,23.787 38.634,23.837 C41.986,25.197 47.046,30.637 49.225,33.454 C50.176,34.631 51.128,35.808 52.079,36.985 C52.387,37.723 52.318,40.417 52.154,41.117 C50.884,41.475 49.126,38.914 48.324,38.112 C45.067,34.855 41.597,31.654 37.732,29.021 C36.800,28.386 33.394,26.786 33.601,25.340 C33.825,23.775 34.958,22.849 35.479,21.583 C35.629,21.007 35.779,20.431 35.930,19.855 C37.565,15.896 44.122,7.897 47.572,5.731 C48.674,5.355 49.776,4.980 50.878,4.604 ZM71.008,4.604 C72.209,4.583 74.172,5.556 73.562,6.858 C71.685,8.561 69.806,10.264 67.929,11.967 C64.440,15.453 61.403,19.429 58.690,23.687 C58.715,23.737 58.740,23.787 58.765,23.837 C62.080,25.140 67.208,30.678 69.356,33.454 C70.307,34.631 71.259,35.808 72.210,36.985 C72.525,37.738 72.452,40.406 72.285,41.117 C71.342,41.405 70.944,40.482 70.332,39.990 C70.061,40.181 70.061,40.255 69.581,40.291 C66.534,36.705 62.212,32.879 58.389,30.073 C57.217,29.213 53.331,27.172 52.831,26.016 C52.501,24.876 55.168,19.671 55.760,18.728 C58.326,14.643 61.879,9.318 65.901,6.783 C67.468,5.795 69.262,5.519 71.008,4.604 Z"
	/>
</svg>
